<?xml version="1.0" encoding="utf-8"?>
<!-- Generator: Adobe Illustrator 16.0.3, SVG Export Plug-In . SVG Version: 6.00 Build 0)  -->
<!DOCTYPE svg PUBLIC "-//W3C//DTD SVG 1.1//EN" "http://www.w3.org/Graphics/SVG/1.1/DTD/svg11.dtd">
<svg version="1.1" id="Layer_1" xmlns="http://www.w3.org/2000/svg" xmlns:xlink="http://www.w3.org/1999/xlink" x="0px" y="0px"
	 width="36px" height="36px" viewBox="0 0 36 36" enable-background="new 0 0 36 36" xml:space="preserve">
<path fill="#848484" d="M34,35.89H6.625c-1.68,0-3.042-1.366-3.042-3.055s1.362-3.055,3.042-3.055H34V35.89z"/>
<path fill="#606060" d="M34,0.458H6.625c-1.68,0-3.042,1.368-3.042,3.055v29.322c0-1.687,1.362-3.055,3.042-3.055H34V0.458z"/>
<g>
	<path fill="#A0A0A0" d="M25.482,31.613h6.084v1.222h-6.084V31.613z"/>
	<path fill="#A0A0A0" d="M7.842,32.835h6.692v1.223H7.842V32.835z"/>
	<path fill="#A0A0A0" d="M21.834,31.613h2.434v1.222h-2.434V31.613z"/>
	<path fill="#A0A0A0" d="M15.75,32.835h1.217v1.223H15.75V32.835z"/>
</g>
<path fill="#141414" d="M6.017,2.901h1.217v13.44H6.017V2.901z"/>
<path fill="#141414" d="M33.12,4.494c-1.931,0-3.495-1.563-3.495-3.494h3.495V4.494z"/>
<path fill="#141414" d="M29.625,28.955c0-1.932,1.564-3.494,3.495-3.494v3.494H29.625z"/>
<path fill="#141414" d="M6.017,17.564h1.217v1.222H6.017V17.564z"/>
<path fill="#141414" d="M6.017,20.007h1.217v1.222H6.017V20.007z"/>
<path fill="#141414" d="M6.017,22.451h1.217v1.22H6.017V22.451z"/>
<path fill="#141414" d="M29.135,13.287c-0.275,0-0.523,0.093-0.727,0.245l-1.283-0.644c-0.188-0.823-0.51-1.592-0.945-2.284
	l0.455-1.371c0.252-0.037,0.496-0.148,0.688-0.341c0.475-0.478,0.475-1.25,0-1.728c-0.477-0.477-1.244-0.477-1.721,0
	c-0.193,0.195-0.303,0.438-0.34,0.689l-1.363,0.457c-0.689-0.438-1.457-0.763-2.277-0.947l-0.639-1.289
	c0.152-0.205,0.242-0.456,0.242-0.729c0-0.675-0.543-1.222-1.215-1.222c-0.674,0-1.217,0.546-1.217,1.222
	c0,0.274,0.092,0.524,0.244,0.728l-0.643,1.289c-0.82,0.186-1.585,0.51-2.275,0.948l-1.364-0.458
	c-0.037-0.251-0.147-0.496-0.339-0.688c-0.476-0.477-1.245-0.477-1.721,0c-0.475,0.476-0.475,1.249,0,1.727
	c0.194,0.195,0.436,0.305,0.686,0.341l0.456,1.37c-0.436,0.693-0.76,1.462-0.944,2.286l-1.284,0.643
	c-0.204-0.152-0.454-0.244-0.726-0.244c-0.672,0-1.217,0.546-1.217,1.222c0,0.675,0.544,1.221,1.217,1.221
	c0.273,0,0.522-0.093,0.726-0.246l1.284,0.644c0.185,0.823,0.508,1.592,0.944,2.285l-0.456,1.37
	c-0.25,0.035-0.492,0.147-0.687,0.341c-0.475,0.477-0.475,1.249,0,1.727c0.476,0.477,1.245,0.477,1.721,0
	c0.193-0.195,0.304-0.437,0.339-0.688l1.364-0.461c0.689,0.438,1.455,0.767,2.274,0.949l0.643,1.288
	c-0.154,0.203-0.242,0.458-0.242,0.729c0,0.677,0.543,1.222,1.217,1.222c0.672,0,1.215-0.547,1.215-1.222
	c0-0.273-0.094-0.525-0.246-0.727l0.643-1.288c0.82-0.189,1.588-0.512,2.277-0.949l1.363,0.46c0.037,0.251,0.148,0.496,0.34,0.689
	c0.475,0.478,1.244,0.478,1.721,0c0.473-0.478,0.473-1.249,0-1.727c-0.195-0.195-0.436-0.306-0.688-0.341l-0.455-1.37
	c0.434-0.693,0.758-1.462,0.943-2.285l1.283-0.644c0.201,0.152,0.453,0.244,0.723,0.244c0.674,0,1.217-0.546,1.217-1.221
	C30.35,13.834,29.805,13.287,29.135,13.287L29.135,13.287z M21.477,15.12h3.355c-0.107,0.893-0.459,1.707-0.982,2.382L21.477,15.12z
	 M16.167,17.502c-0.523-0.676-0.872-1.491-0.984-2.382h3.356L16.167,17.502z M18.539,13.898h-3.356
	c0.111-0.892,0.461-1.707,0.984-2.382L18.539,13.898z M21.477,13.898l2.373-2.382c0.523,0.677,0.871,1.492,0.98,2.382H21.477z
	 M22.988,10.651l-2.373,2.382V9.663C21.504,9.776,22.316,10.126,22.988,10.651z M19.4,9.663v3.371l-2.372-2.382
	C17.7,10.126,18.512,9.776,19.4,9.663z M17.027,18.364l2.373-2.381v3.372C18.512,19.241,17.7,18.891,17.027,18.364z M20.615,19.354
	v-3.372l2.373,2.381C22.316,18.891,21.504,19.241,20.615,19.354z"/>
</svg>
