<?xml version="1.0" encoding="utf-8"?>
<!-- Generator: Adobe Illustrator 16.0.3, SVG Export Plug-In . SVG Version: 6.00 Build 0)  -->
<!DOCTYPE svg PUBLIC "-//W3C//DTD SVG 1.1//EN" "http://www.w3.org/Graphics/SVG/1.1/DTD/svg11.dtd">
<svg version="1.1" id="Layer_1" xmlns="http://www.w3.org/2000/svg" xmlns:xlink="http://www.w3.org/1999/xlink" x="0px" y="0px"
	 width="36px" height="36px" viewBox="0 0 36 36" enable-background="new 0 0 36 36" xml:space="preserve">
<path fill="#3F3F3F" stroke="#000000" stroke-width="0.25" stroke-miterlimit="10" d="M24.927,7.786
	c0.446,1.352,0.73,2.818,0.73,4.36c0,4.4-2.313,8.187-4.076,10.431c3.908-1.397,6.913-5.191,7.741-9.903
	c0.376-2.132,1.043-4.18,2.021-6.033h-1.792C27.902,6.641,26.34,7.05,24.927,7.786z"/>
<path fill="#AFAFAF" d="M22.425,22.287c1.729-2.271,3.857-5.917,3.857-10.14c0-1.542-0.284-3.008-0.73-4.36
	c1.413-0.736,2.976-1.145,4.624-1.145h-0.438c-1.648,0-3.211,0.409-4.624,1.145c0.446,1.352,0.73,2.818,0.73,4.36
	c0,4.4-2.313,8.187-4.076,10.431C21.994,22.498,22.205,22.383,22.425,22.287z"/>
<path fill="#3F3F3F" stroke="#000000" stroke-width="0.25" stroke-miterlimit="10" d="M14.902,24.798h-2.24
	c-2.947,0-5.335,2.468-5.335,5.509s5.394-0.002,5.425-0.002C12.584,28.254,13.598,26.271,14.902,24.798z"/>
<path fill="#3F3F3F" stroke="#000000" stroke-width="0.25" stroke-miterlimit="10" d="M17.508,22.663h0.984
	c1.32-1.396,4.844-5.577,4.844-10.517C23.337,6.064,18,1.133,18,1.133s-5.338,4.931-5.338,11.013
	C12.663,17.086,16.186,21.27,17.508,22.663z"/>
<path fill="#9B9B9B" d="M17.406,2.27c-0.143-0.143,0.125-0.489,0.125-0.489s-4.869,4.578-4.719,10.961
	c0.105,4.469,3.429,8.3,4.625,9.56l0.281,0.275c-1.196-1.26-4.375-5.364-4.375-9.835C13.344,7.953,16.456,3.229,17.406,2.27z"/>
<path fill="#3F3F3F" stroke="#000000" stroke-width="0.25" stroke-miterlimit="10" d="M28.674,30.307
	c0-3.041-2.39-5.509-5.337-5.509h-2.239c1.311,1.479,2.319,3.448,2.151,5.507C23.277,30.305,28.674,30.307,28.674,30.307
	L28.674,30.307z"/>
<path fill="#3F3F3F" stroke="#000000" stroke-width="0.25" stroke-miterlimit="10" d="M35.667,14.039l-1.646-0.827
	c-0.903-0.454-1.83-0.759-2.761-0.927c-0.055,0.254-0.104,0.512-0.151,0.771c-0.592,3.37-2.192,6.449-4.508,8.67
	c-0.449,0.428-0.918,0.82-1.408,1.178c0.447,0.121,0.881,0.279,1.298,0.481c2.083-0.915,3.933-2.54,5.258-4.743
	C32.82,16.861,34.135,15.289,35.667,14.039z"/>
<path fill="#AFAFAF" d="M26.883,22.021c2.315-2.221,3.916-5.3,4.508-8.67c0.047-0.259,0.097-0.517,0.151-0.771
	c0.89,0.161,1.773,0.455,2.639,0.876l-0.159-0.08c-0.903-0.454-1.83-0.759-2.761-0.927c-0.055,0.254-0.104,0.512-0.151,0.771
	c-0.592,3.37-2.192,6.449-4.508,8.67c-0.449,0.428-0.663,0.63-1.153,0.987c0.107,0.029,0.2,0.075,0.307,0.108
	C26.231,22.636,26.445,22.438,26.883,22.021z"/>
<path fill="#3F3F3F" stroke="#000000" stroke-width="0.25" stroke-miterlimit="10" d="M18,34.866c0,0,3.198-2.255,3.198-5.034
	c0-2.777-3.198-5.034-3.198-5.034s-3.198,2.257-3.198,5.034C14.803,32.611,18,34.866,18,34.866z"/>
<path fill="#3F3F3F" stroke="#000000" stroke-width="0.25" stroke-miterlimit="10" d="M6.698,6.641H4.905
	c0.981,1.854,1.647,3.901,2.022,6.033c0.766,4.352,3.606,8.426,7.74,9.903c-1.761-2.244-4.073-6.031-4.073-10.431
	c0-1.542,0.284-3.009,0.729-4.36C9.911,7.05,8.345,6.641,6.698,6.641L6.698,6.641z"/>
<path fill="#3F3F3F" stroke="#000000" stroke-width="0.25" stroke-miterlimit="10" d="M4.252,18.643
	c1.325,2.203,3.174,3.83,5.258,4.744c0.416-0.203,0.851-0.363,1.297-0.482c-0.488-0.354-0.959-0.75-1.406-1.178
	c-2.316-2.222-3.918-5.301-4.511-8.669c-0.046-0.26-0.096-0.518-0.151-0.771c-0.929,0.168-1.856,0.474-2.76,0.927L0.333,14.04
	C1.866,15.289,3.179,16.861,4.252,18.643L4.252,18.643z"/>
<path fill="#070707" stroke="#000000" stroke-width="0.25" stroke-miterlimit="10" d="M30.968,6.642
	c-0.978,1.853-1.645,3.901-2.021,6.033c-0.787,4.479-3.553,8.103-7.18,9.652c-0.062,0.082-0.127,0.174-0.188,0.252
	c3.908-1.397,6.913-5.192,7.74-9.904c0.377-2.132,1.044-4.18,2.021-6.033H30.968z"/>
<path fill="#161616" stroke="#000000" stroke-width="0.25" stroke-miterlimit="10" d="M34.021,13.212
	c-0.903-0.454-1.83-0.759-2.761-0.927c-0.006,0.025-0.01,0.051-0.015,0.076c0.829,0.176,1.654,0.445,2.462,0.851l1.646,0.827
	c-1.531,1.25-2.847,2.822-3.918,4.604c-1.293,2.151-3.09,3.746-5.111,4.674c0.056,0.024,0.111,0.045,0.167,0.07
	c2.083-0.916,3.933-2.541,5.258-4.744c1.071-1.782,2.386-3.354,3.918-4.604L34.021,13.212z"/>
<path fill="#1C1C1C" stroke="#000000" stroke-width="0.25" stroke-miterlimit="10" d="M14.902,24.798H14.59
	c-1.305,1.474-2.318,3.456-2.15,5.507c-0.021,0-2.305,1.279-3.902,1.342c1.592,0.121,4.193-1.342,4.215-1.342
	C12.584,28.254,13.598,26.271,14.902,24.798z"/>
<path fill="#1C1C1C" stroke="#000000" stroke-width="0.25" stroke-miterlimit="10" d="M28.361,30.307c0.19,0,0.313,0,0.313,0
	c0-3.041-2.39-5.509-5.337-5.509h-0.313C25.973,24.798,28.361,27.266,28.361,30.307z"/>
<path fill="#1C1C1C" stroke="#000000" stroke-width="0.25" stroke-miterlimit="10" d="M28.163,30.307c0.19,0,0.313,0,0.313,0
	c0-3.041-2.391-5.509-5.338-5.509h-0.313C25.773,24.798,28.163,27.266,28.163,30.307z"/>
<path fill="#1C1C1C" stroke="#000000" stroke-width="0.25" stroke-miterlimit="10" d="M18,24.798c0,0-0.059,0.042-0.156,0.117
	c0.638,0.492,3.042,2.508,3.042,4.917c0,2.411-2.404,4.425-3.042,4.917C17.941,34.824,18,34.866,18,34.866s3.198-2.255,3.198-5.034
	C21.198,27.055,18,24.798,18,24.798z"/>
<path fill="#1C1C1C" stroke="#000000" stroke-width="0.25" stroke-miterlimit="10" d="M17.844,24.915c0,0-0.027,0.022-0.125,0.099
	c0.638,0.491,2.917,2.409,2.917,4.818c0,2.411-2.28,4.327-2.917,4.818c0.098,0.076,0.125,0.099,0.125,0.099s3.105-2.138,3.105-4.917
	C20.949,27.055,17.844,24.915,17.844,24.915z"/>
<path fill="#0C0C0C" stroke="#000000" stroke-width="0.25" stroke-miterlimit="10" d="M17.999,22.663c0.235-0.022,0.493,0,0.493,0
	s4.842-4.629,4.842-10.711c-0.001-4.94-3.742-9.222-5.064-10.617h-0.417c1.322,1.395,4.844,5.578,4.846,10.518
	C22.699,17.222,18.975,21.688,17.999,22.663z"/>
<path fill="#111111" stroke="#000000" stroke-width="0.25" stroke-miterlimit="10" d="M10.344,12.146
	c0,4.313,2.22,8.028,3.966,10.286c0.119,0.049,0.235,0.103,0.357,0.146c-1.761-2.244-4.073-6.031-4.073-10.43
	c0-1.542,0.284-3.009,0.729-4.36C9.911,7.05,8.346,6.641,6.698,6.641h-0.25c1.647,0,3.213,0.409,4.625,1.145
	C10.628,9.137,10.344,10.604,10.344,12.146z"/>
<path fill="#111111" stroke="#000000" stroke-width="0.25" stroke-miterlimit="10" d="M10.344,12.291
	c0,4.313,2.07,7.832,3.816,10.089c0.119,0.05,0.385,0.154,0.507,0.197c-1.761-2.244-4.073-5.887-4.073-10.287
	c0-1.542,0.284-3.009,0.729-4.36C9.911,7.194,8.346,6.786,6.698,6.786h-0.25c1.647,0,3.213,0.409,4.625,1.145
	C10.628,9.282,10.344,10.749,10.344,12.291z"/>
<path fill="#111111" stroke="#000000" stroke-width="0.25" stroke-miterlimit="10" d="M9.401,21.727
	c-2.315-2.223-3.918-5.301-4.51-8.67c-0.047-0.26-0.097-0.518-0.151-0.771c-0.079,0.014-0.158,0.044-0.238,0.061
	c0.05,0.233,0.097,0.47,0.14,0.71c0.592,3.37,2.194,6.448,4.51,8.67c0.447,0.428,0.918,0.822,1.406,1.178
	c-0.398,0.106-0.787,0.253-1.164,0.427c0.04,0.019,0.078,0.039,0.117,0.058c0.416-0.203,0.852-0.363,1.297-0.482
	C10.319,22.549,9.848,22.154,9.401,21.727z"/>
<path fill="#111111" stroke="#000000" stroke-width="0.25" stroke-miterlimit="10" d="M9.151,21.727
	c-2.315-2.223-3.918-5.3-4.51-8.669c-0.047-0.26-0.097-0.518-0.151-0.771C4.411,12.3,4.332,12.33,4.252,12.347
	c0.05,0.233,0.097,0.47,0.14,0.71c0.592,3.37,2.194,6.448,4.51,8.669c0.447,0.428,0.918,0.822,1.406,1.178
	c-0.398,0.107-0.625,0.181-1.002,0.354c0.04,0.019,0.126,0.056,0.165,0.072c0.416-0.203,0.642-0.308,1.087-0.427
	C10.069,22.549,9.599,22.154,9.151,21.727z"/>
</svg>
