<?xml version="1.0" encoding="utf-8"?>
<!-- Generator: Adobe Illustrator 16.0.3, SVG Export Plug-In . SVG Version: 6.00 Build 0)  -->
<!DOCTYPE svg PUBLIC "-//W3C//DTD SVG 1.1//EN" "http://www.w3.org/Graphics/SVG/1.1/DTD/svg11.dtd">
<svg version="1.1" id="Layer_1" xmlns="http://www.w3.org/2000/svg" xmlns:xlink="http://www.w3.org/1999/xlink" x="0px" y="0px"
	 width="36px" height="36px" viewBox="0 0 36 36" enable-background="new 0 0 36 36" xml:space="preserve">
<g id="_x30_29---Namaste" transform="translate(-1)">
	<path id="Shape" fill="#757575" stroke="#000000" stroke-width="0.25" stroke-miterlimit="10" d="M19.135,19.174v9.992
		c0,1.764-1.175,3.525-2.938,3.525c-0.588,0-4.114,2.354-4.114,2.354H2.089v-2.354c4.115-2.352,9.405-3.525,9.405-4.113v-2.939
		l0.5-7.194c0.069-1.371,0.424-2.715,1.04-3.943l2.763-7.283c0.367-0.729,1.186-1.112,1.981-0.924
		c0.793,0.188,1.355,0.896,1.357,1.711c0.001,0.042,0,0.087-0.005,0.13C19.103,8.32,19.058,8.5,18.995,8.678
		c-0.476,1.486-2.051,5.53-2.198,8.834c0.185-0.066,0.379-0.101,0.576-0.101C18.345,17.41,19.135,18.199,19.135,19.174
		L19.135,19.174z"/>
	<path id="Shape_1_" fill="#282828" stroke="#000000" stroke-width="0.25" stroke-miterlimit="10" d="M17.372,17.41
		c-0.196,0-0.391,0.035-0.576,0.101c0.147-3.304,1.723-7.348,2.198-8.834c0.063-0.177,0.108-0.357,0.135-0.542
		c0.004-0.043,0.006-0.086,0.005-0.13c-0.002-0.628-0.338-1.208-0.884-1.523c-0.545-0.313-1.216-0.313-1.76,0.002
		c0.545,0.313,0.881,0.894,0.881,1.521c0.001,0.042-0.001,0.087-0.005,0.13C17.339,8.319,17.294,8.5,17.23,8.677
		c-0.476,1.486-2.052,5.53-2.198,8.834c0.185-0.066,0.38-0.101,0.576-0.101c0.974,0,1.763,0.79,1.763,1.764v9.992
		c0,1.764-1.175,3.525-2.939,3.525c-0.588,0-4.115,2.354-4.115,2.354h1.764c0,0,3.526-2.354,4.114-2.354
		c1.763,0,2.938-1.762,2.938-3.525v-9.992C19.135,18.199,18.345,17.41,17.372,17.41z"/>
	<path id="Shape_2_" fill="#878787" stroke="#000000" stroke-width="0.25" stroke-miterlimit="10" d="M21.475,17.511
		c-0.186-0.066-0.379-0.101-0.576-0.101c-0.974,0-1.764,0.79-1.764,1.764c0-0.975-0.79-1.764-1.763-1.764
		c-0.196,0-0.391,0.035-0.576,0.101c0.147-3.304,1.723-7.348,2.198-8.834c0.063-0.177,0.108-0.357,0.135-0.542
		c0.004-0.043,0.006-0.087,0.005-0.13c0,0.042,0.001,0.087,0.007,0.13c0.026,0.184,0.072,0.364,0.134,0.542
		C19.752,10.163,21.328,14.207,21.475,17.511z"/>
	<path id="Shape_3_" fill="#757575" stroke="#000000" stroke-width="0.25" stroke-miterlimit="10" d="M36.18,32.691v2.354h-9.99
		c0,0-3.525-2.354-4.113-2.354c-1.766,0-2.939-1.762-2.939-3.525v-9.992c0-0.975,0.79-1.764,1.765-1.764
		c0.197,0,0.391,0.035,0.576,0.101c-0.146-3.304-1.725-7.348-2.201-8.834c-0.064-0.177-0.11-0.357-0.135-0.542
		c-0.005-0.043-0.007-0.087-0.007-0.13c0.003-0.816,0.564-1.524,1.358-1.711s1.613,0.195,1.98,0.924l2.762,7.283
		c0.617,1.228,0.972,2.572,1.041,3.943l0.5,7.195v2.938C26.777,29.166,32.066,30.342,36.18,32.691z"/>
	<path id="Shape_4_" fill="#282828" stroke="#000000" stroke-width="0.25" stroke-miterlimit="10" d="M26.777,28.578v-2.939
		l-0.5-7.194c-0.07-1.371-0.424-2.715-1.041-3.943l-2.762-7.283c-0.438-0.869-1.492-1.221-2.363-0.789
		c-0.032,0.017-0.061,0.037-0.092,0.055c0.297,0.172,0.537,0.427,0.689,0.734l2.764,7.283c0.615,1.228,0.971,2.572,1.041,3.943
		l0.5,7.194v2.939c0,0.588,5.287,1.764,9.402,4.113v2.354h1.764v-2.354C32.066,30.342,26.777,29.166,26.777,28.578z"/>
	<path id="Shape_5_" fill="#878787" stroke="#000000" stroke-width="0.25" stroke-miterlimit="10" d="M31.479,16.234
		c0.004,3.782-1.729,7.356-4.701,9.694v-0.289l-0.5-7.194c-0.068-1.371-0.424-2.715-1.041-3.943l-2.762-7.283
		c-0.367-0.729-1.188-1.112-1.979-0.924s-1.355,0.896-1.358,1.711c-0.002-0.816-0.564-1.524-1.358-1.711
		c-0.794-0.188-1.614,0.195-1.98,0.924l-2.763,7.283c-0.616,1.228-0.971,2.572-1.04,3.943l-0.5,7.194v0.289
		c-4.53-3.572-5.983-9.803-3.5-15.008c2.483-5.207,8.241-7.999,13.868-6.726C27.484,5.467,31.479,10.467,31.479,16.234
		L31.479,16.234z"/>
	<path id="Shape_6_" fill="#282828" stroke="#000000" stroke-width="0.25" stroke-miterlimit="10" d="M19.135,3.892
		c-0.297,0-0.587,0.024-0.882,0.044c4.665,0.329,8.741,3.266,10.526,7.587c1.787,4.32,0.977,9.28-2.094,12.806l0.092,1.312v0.289
		c4.127-3.257,5.74-8.77,4.018-13.738C29.074,7.224,24.393,3.893,19.135,3.892z"/>
	<path id="Shape_7_" fill="#A0A0A0" stroke="#000000" stroke-width="0.25" stroke-miterlimit="10" d="M3.853,32.691
		c4.115-2.352,9.404-3.525,9.404-4.113v-2.65c-4.001-3.152-5.654-8.441-4.159-13.31c1.496-4.871,5.832-8.319,10.913-8.681
		c-0.584-0.042-1.171-0.042-1.756,0c-5.082,0.359-9.42,3.808-10.918,8.678c-1.497,4.871,0.154,10.158,4.158,13.313v2.65
		c0,0.588-5.29,1.764-9.405,4.113v2.354h1.763V32.691L3.853,32.691z"/>
	<path id="Shape_8_" fill="#9B9B9B" stroke="#000000" stroke-width="0.25" stroke-miterlimit="10" d="M7.137,11.426l1.091,0.438
		c-0.556,1.391-0.844,2.873-0.848,4.369H6.204C6.208,14.588,6.524,12.956,7.137,11.426z"/>
	<g>
		<path id="Shape_9_" fill="#0A0A0A" stroke="#000000" stroke-width="0.25" stroke-miterlimit="10" d="M1.579,32.988
			c0.162,0.281,0.521,0.377,0.802,0.217c2.143-1.146,4.38-2.105,6.687-2.869c2.315-0.828,3.014-1.08,3.014-1.758V25.68l0.5-7.205
			c0.065-1.292,0.398-2.555,0.979-3.71c0.008-0.016,0.016-0.036,0.023-0.054l2.75-7.254c0.253-0.475,0.798-0.718,1.321-0.587
			c0.523,0.129,0.891,0.598,0.893,1.136v0.06c-0.023,0.146-0.061,0.29-0.111,0.428c-0.075,0.235-0.176,0.531-0.293,0.876
			c-0.605,1.759-1.705,4.974-1.909,7.758c-0.746,0.412-1.211,1.194-1.213,2.047v7.054c0,0.323,0.264,0.588,0.588,0.588
			c0.325,0,0.588-0.265,0.588-0.588v-7.054c0-0.649,0.526-1.176,1.175-1.176s1.176,0.526,1.176,1.176v9.992
			c0,1.414-0.898,2.938-2.351,2.938c-0.508,0-2.002,0.821-4.441,2.449c-0.27,0.18-0.342,0.547-0.162,0.813
			c0.18,0.271,0.545,0.344,0.815,0.164c1.204-0.849,2.47-1.601,3.789-2.253c1.249-0.026,2.382-0.743,2.938-1.86
			c0.542,1.106,1.656,1.826,2.89,1.86h0.005c1.34,0.642,2.62,1.396,3.831,2.255c0.271,0.182,0.636,0.108,0.816-0.162
			c0.18-0.271,0.106-0.636-0.162-0.815c-2.438-1.63-3.935-2.451-4.44-2.451c-1.453,0-2.353-1.524-2.353-2.938v-9.992
			c0-0.649,0.526-1.176,1.176-1.176c0.648,0,1.177,0.526,1.177,1.176v7.054c0,0.323,0.264,0.588,0.588,0.588
			c0.323,0,0.586-0.265,0.586-0.588v-7.054c-0.002-0.851-0.465-1.632-1.209-2.043c-0.201-2.788-1.304-6.001-1.908-7.759
			c-0.118-0.346-0.22-0.642-0.297-0.881c-0.051-0.139-0.089-0.281-0.112-0.425v-0.06C19.727,7.469,20.096,7,20.618,6.871
			c0.522-0.131,1.067,0.112,1.319,0.587l2.752,7.25c0.006,0.019,0.015,0.038,0.022,0.055c0.582,1.159,0.914,2.427,0.979,3.722
			l0.5,7.156v2.939c0,0.678,0.697,0.93,3.015,1.758c2.305,0.764,4.541,1.723,6.685,2.867c0.282,0.162,0.644,0.063,0.801-0.219
			c0.162-0.281,0.063-0.641-0.217-0.803c-2.201-1.182-4.502-2.166-6.873-2.953c-0.761-0.25-1.504-0.541-2.233-0.873v-2.152
			c4.211-3.471,5.786-9.211,3.94-14.345c-1.845-5.133-6.713-8.556-12.169-8.554c-1.283,0.018-2.558,0.209-3.79,0.566
			c-1.223,0.392-2.385,0.949-3.458,1.654C10.837,6.26,9.889,7.133,9.074,8.125c-0.801,1.002-1.453,2.116-1.935,3.305
			c-0.081,0.196-0.049,0.418,0.08,0.585c0.13,0.166,0.339,0.251,0.548,0.22c0.208-0.031,0.385-0.171,0.462-0.367
			c0.439-1.081,1.031-2.093,1.758-3.005c0.743-0.9,1.604-1.694,2.562-2.363c0.975-0.639,2.032-1.144,3.142-1.502
			c1.121-0.325,2.28-0.498,3.446-0.517c4.791-0.001,9.105,2.907,10.9,7.35s0.713,9.53-2.736,12.858l-0.436-6.274
			c-0.072-1.443-0.443-2.855-1.088-4.149l-2.752-7.258C23.018,6.99,23.009,6.972,23,6.953c-0.35-0.697-1.023-1.176-1.799-1.276
			c-0.773-0.1-1.549,0.19-2.064,0.776c-0.517-0.585-1.29-0.876-2.065-0.776c-0.774,0.101-1.448,0.58-1.798,1.278
			c-0.009,0.018-0.017,0.036-0.023,0.054l-2.755,7.257c-0.644,1.29-1.014,2.699-1.088,4.139l-0.435,6.287
			c-2.301-2.211-3.6-5.265-3.591-8.457c0-0.324-0.263-0.587-0.587-0.587c-0.325,0-0.588,0.263-0.588,0.587
			c-0.009,3.863,1.717,7.52,4.702,9.967v2.153c-0.729,0.332-1.474,0.623-2.234,0.873c-2.372,0.787-4.673,1.772-6.876,2.955
			C1.66,32.26,1.561,32.389,1.52,32.541C1.48,32.691,1.501,32.852,1.579,32.988L1.579,32.988z M20.832,16.829
			c-0.652,0.019-1.27,0.312-1.697,0.807c-0.427-0.495-1.043-0.788-1.697-0.807c0.324-2.301,0.894-4.561,1.697-6.74
			C19.939,12.269,20.509,14.528,20.832,16.829z"/>
		<path id="Shape_10_" fill="#0A0A0A" stroke="#000000" stroke-width="0.25" stroke-miterlimit="10" d="M7.031,14.484
			c-0.324,0.002-0.589-0.26-0.591-0.584c-0.002-0.324,0.26-0.589,0.585-0.591h0.006c0.325,0,0.588,0.263,0.588,0.588
			C7.619,14.221,7.356,14.484,7.031,14.484z"/>
		<path id="Shape_11_" fill="#0A0A0A" stroke="#000000" stroke-width="0.25" stroke-miterlimit="10" d="M19.723,1.54V0.952
			c0-0.324-0.264-0.587-0.588-0.587c-0.325,0-0.587,0.264-0.587,0.587V1.54c0,0.325,0.263,0.588,0.587,0.588
			C19.459,2.128,19.723,1.865,19.723,1.54z"/>
		<path id="Shape_12_" fill="#0A0A0A" stroke="#000000" stroke-width="0.25" stroke-miterlimit="10" d="M11.788,4.096
			c0.21,0,0.403-0.111,0.508-0.294c0.105-0.183,0.105-0.405,0-0.587l-0.294-0.508c-0.163-0.28-0.521-0.374-0.801-0.212
			c-0.279,0.161-0.377,0.519-0.217,0.8l0.294,0.508C11.383,3.985,11.578,4.097,11.788,4.096z"/>
		<path id="Shape_13_" fill="#0A0A0A" stroke="#000000" stroke-width="0.25" stroke-miterlimit="10" d="M6.704,8.377l-0.51-0.293
			c-0.281-0.16-0.638-0.063-0.799,0.217c-0.162,0.28-0.067,0.637,0.211,0.801l0.51,0.294c0.182,0.105,0.408,0.106,0.59,0.002
			C6.889,9.293,7.001,9.099,7,8.888C7,8.677,6.887,8.482,6.704,8.377z"/>
		<path id="Shape_14_" fill="#0A0A0A" stroke="#000000" stroke-width="0.25" stroke-miterlimit="10" d="M4.44,16.822
			c0.326,0,0.588-0.264,0.588-0.588c0-0.324-0.263-0.587-0.588-0.587H3.853c-0.324,0-0.588,0.263-0.588,0.587
			c0,0.325,0.264,0.588,0.588,0.588H4.44z"/>
		<path id="Shape_15_" fill="#0A0A0A" stroke="#000000" stroke-width="0.25" stroke-miterlimit="10" d="M5.391,24.17
			c0.162,0.281,0.522,0.377,0.803,0.215l0.51-0.293C6.887,23.986,7,23.791,7,23.582c0-0.211-0.112-0.408-0.295-0.512
			c-0.182-0.105-0.408-0.104-0.59,0.004l-0.51,0.293C5.325,23.529,5.229,23.889,5.391,24.17L5.391,24.17z"/>
		<path id="Shape_16_" fill="#0A0A0A" stroke="#000000" stroke-width="0.25" stroke-miterlimit="10" d="M32.664,23.367l-0.51-0.293
			c-0.182-0.107-0.406-0.109-0.59-0.004c-0.184,0.104-0.295,0.301-0.295,0.512c0,0.209,0.111,0.404,0.299,0.51l0.508,0.293
			c0.281,0.16,0.637,0.063,0.801-0.217C33.037,23.889,32.943,23.529,32.664,23.367L32.664,23.367z"/>
		<path id="Shape_17_" fill="#0A0A0A" stroke="#000000" stroke-width="0.25" stroke-miterlimit="10" d="M34.418,16.822
			c0.324,0,0.588-0.264,0.588-0.588c0-0.324-0.264-0.587-0.588-0.587h-0.59c-0.322,0-0.586,0.263-0.586,0.587
			c0,0.325,0.264,0.588,0.586,0.588H34.418z"/>
		<path id="Shape_18_" fill="#0A0A0A" stroke="#000000" stroke-width="0.25" stroke-miterlimit="10" d="M32.879,8.3
			c-0.162-0.281-0.521-0.377-0.803-0.215l-0.508,0.293c-0.188,0.105-0.299,0.299-0.299,0.511c0,0.212,0.111,0.405,0.295,0.511
			c0.184,0.104,0.408,0.104,0.59-0.002l0.51-0.294C32.945,8.939,33.043,8.581,32.879,8.3z"/>
		<path id="Shape_19_" fill="#0A0A0A" stroke="#000000" stroke-width="0.25" stroke-miterlimit="10" d="M26.48,4.096
			c0.213,0.001,0.404-0.111,0.512-0.294l0.293-0.508c0.16-0.281,0.063-0.639-0.217-0.8c-0.279-0.161-0.637-0.067-0.801,0.212
			l-0.293,0.508c-0.105,0.182-0.105,0.406,0,0.587C26.078,3.985,26.271,4.096,26.48,4.096L26.48,4.096z"/>
	</g>
</g>
</svg>
